<svg width="12" height="12" viewBox="0 0 12 12" fill="none" xmlns="http://www.w3.org/2000/svg">
<path d="M8.78052 10.78C8.69951 10.7799 8.61974 10.7602 8.54802 10.7225L5.99952 9.38254L3.45102 10.7225C3.36844 10.766 3.27537 10.7854 3.18232 10.7787C3.08927 10.772 2.99996 10.7393 2.92448 10.6845C2.849 10.6297 2.79037 10.5548 2.75521 10.4684C2.72005 10.382 2.70976 10.2875 2.72552 10.1955L3.21202 7.35754L1.15052 5.34754C1.08381 5.28241 1.03664 5.19993 1.01434 5.10941C0.992033 5.01889 0.99548 4.92394 1.02429 4.83528C1.0531 4.74661 1.10612 4.66777 1.17738 4.60765C1.24863 4.54753 1.33527 4.50852 1.42752 4.49504L4.27702 4.08104L5.55102 1.49904C5.59709 1.4211 5.66269 1.3565 5.74134 1.31163C5.81998 1.26676 5.90897 1.24316 5.99952 1.24316C6.09006 1.24316 6.17905 1.26676 6.2577 1.31163C6.33634 1.3565 6.40194 1.4211 6.44802 1.49904L7.72202 4.08104L10.5715 4.49504C10.6639 4.50845 10.7506 4.54744 10.822 4.6076C10.8933 4.66775 10.9464 4.74667 10.9752 4.83542C11.004 4.92418 11.0074 5.01923 10.9851 5.10982C10.9627 5.20042 10.9154 5.28293 10.8485 5.34804L8.78702 7.35754L9.27352 10.1955C9.28582 10.2673 9.2823 10.3409 9.2632 10.4112C9.24409 10.4815 9.20987 10.5467 9.16291 10.6024C9.11595 10.6581 9.0574 10.7028 8.99135 10.7335C8.9253 10.7642 8.85335 10.7801 8.78052 10.78Z" fill="#FFC02E"/>
</svg>
