<svg width="12" height="12" viewBox="0 0 12 12" fill="none" xmlns="http://www.w3.org/2000/svg">
<path opacity="0.5" d="M10.9756 4.83502C10.9467 4.74636 10.8936 4.66754 10.8223 4.60746C10.751 4.54738 10.6643 4.50844 10.5721 4.49502L7.72256 4.08102L6.44856 1.49902C6.40514 1.41875 6.34012 1.35223 6.26086 1.30699C6.1816 1.26175 6.09126 1.23959 6.00006 1.24302V9.38302L8.54856 10.7225C8.63113 10.7659 8.72421 10.7854 8.81726 10.7787C8.9103 10.7719 8.99962 10.7393 9.07509 10.6845C9.15057 10.6297 9.20921 10.5548 9.24437 10.4684C9.27953 10.382 9.28981 10.2875 9.27406 10.1955L8.78756 7.35752L10.8491 5.34752C10.9159 5.2824 10.9631 5.19989 10.9855 5.10933C11.0078 5.01876 11.0044 4.92374 10.9756 4.83502Z" fill="#676767"/>
<path d="M5.5514 1.49896L4.2774 4.08096L1.4279 4.49497C1.33555 4.50838 1.2488 4.54736 1.17745 4.60752C1.10611 4.66767 1.05302 4.74659 1.0242 4.83535C0.99538 4.9241 0.991971 5.01915 1.01436 5.10975C1.03675 5.20034 1.08405 5.28286 1.1509 5.34797L3.2124 7.35747L2.7259 10.1955C2.71021 10.2873 2.72052 10.3818 2.75566 10.4681C2.79081 10.5545 2.84938 10.6293 2.92478 10.6841C3.00018 10.7389 3.0894 10.7715 3.18236 10.7783C3.27533 10.7851 3.36834 10.7657 3.4509 10.7225L5.9999 9.38247V1.25146C5.8219 1.25196 5.6484 1.33496 5.5514 1.49896Z" fill="#FFC02E"/>
</svg>
